Coordinates
version=1
nRows=12
nColumns=28
inDegrees=yes

Units are S.I. units (second, meters, Newtons, ...)
Angles are in degrees.

endheader
time	pelvis_tilt	pelvis_list	pelvis_rotation	pelvis_tx	pelvis_ty	pelvis_tz	hip_flexion_r	hip_adduction_r	hip_rotation_r	knee_angle_r	ankle_angle_r	subtalar_angle_r	mtp_angle_r	hip_flexion_l	hip_adduction_l	hip_rotation_l	knee_angle_l	socket_flexion	socket_adduction	socket_rotation	socket_tx	socket_ty	socket_tz	foot_flex	lumbar_extension	lumbar_bending	lumbar_rotation
      0.62500000	      0.72421237	      6.54329565	     14.41214548	     -0.02422665	      1.00673205	      0.24194281	     21.92856590	    -10.85583365	    -15.15586687	     -7.72378507	     19.09899020	    -11.35539672	     -8.76325689	    -22.27872757	      3.92005609	     22.33505513	     -9.00375686	      0.00000000	      0.00000000	      0.00000000	      0.00000000	      0.00000000	      0.00000000	      9.14220141	    -14.22713923	     -4.97503697	    -14.18193439
      0.62916667	      0.58732914	      6.60939928	     14.34550337	     -0.02423494	      1.00649288	      0.24205065	     22.17968002	    -10.95804665	    -15.10746395	     -7.91551090	     19.20188132	    -11.13602442	     -8.44636547	    -22.15242117	      4.05101614	     22.31351000	     -9.00948855	      0.00000000	      0.00000000	      0.00000000	      0.00000000	      0.00000000	      0.00000000	      9.10957198	    -14.09378695	     -5.12284625	    -14.02736859
      0.63333333	      0.69591335	      6.54093533	     14.45037897	     -0.01782480	      1.00565514	      0.24217297	     22.25085576	    -10.88160014	    -14.99611037	     -8.72512191	     18.76942748	    -11.24213112	     -8.35063360	    -22.38497795	      3.89514037	     22.27588719	     -9.43809165	      0.00000000	      0.00000000	      0.00000000	      0.00000000	      0.00000000	      0.00000000	      9.08914940	    -14.13620911	     -4.90239762	    -14.17308985
      0.63750000	      0.77982222	      6.46835208	     14.52883376	     -0.01141058	      1.00481863	      0.24234451	     22.36121008	    -10.79754720	    -14.83950841	     -9.56786470	     18.37387713	    -11.27754083	     -8.28562552	    -22.57948227	      3.75315590	     22.27006557	     -9.88318404	      0.00000000	      0.00000000	      0.00000000	      0.00000000	      0.00000000	      0.00000000	      9.03741128	    -14.15210977	     -4.69865525	    -14.24239689
      0.64166667	      0.84823136	      6.39073039	     14.64540512	     -0.00503682	      1.00405621	      0.24246534	     22.43124029	    -10.71223698	    -14.63450165	    -10.31913953	     18.05426325	    -11.26670886	     -8.23469313	    -22.70907976	      3.61443131	     22.27215166	    -10.40542743	      0.00000000	      0.00000000	      0.00000000	      0.00000000	      0.00000000	      0.00000000	      8.90248116	    -14.16235988	     -4.47450893	    -14.27193550
      0.64583333	      0.88675792	      6.44791185	     14.72778921	      0.00157747	      1.00306086	      0.24256201	     22.77396691	    -10.91794894	    -15.02204904	    -11.55020900	     15.82457267	    -11.26344154	     -0.06336457	    -22.86881860	      3.63106159	     22.22877009	    -10.91086649	      0.00000000	      0.00000000	      0.00000000	      0.00000000	      0.00000000	      0.00000000	      8.78287521	    -14.12272439	     -4.43278657	    -14.46567019
      0.65000000	      0.99452634	      6.36109898	     14.73297514	      0.00802494	      1.00230817	      0.24283448	     22.91167525	    -10.81556372	    -14.87288200	    -12.50209624	     15.37167037	    -11.26932374	     -0.08335715	    -23.01071617	      3.52494622	     22.09574325	    -11.49640193	      0.00000000	      0.00000000	      0.00000000	      0.00000000	      0.00000000	      0.00000000	      8.68190963	    -14.14647279	     -4.21673344	    -14.51033086
      0.65416667	      1.09102487	      6.26144098	     14.76401772	      0.01447930	      1.00161632	      0.24306675	     23.04386546	    -10.70755520	    -14.71553304	    -13.44589728	     14.94381765	    -11.26125959	     -0.07377320	    -23.11636033	      3.40613016	     21.98843554	    -12.11032157	      0.00000000	      0.00000000	      0.00000000	      0.00000000	      0.00000000	      0.00000000	      8.51668229	    -14.16136612	     -3.98289387	    -14.52545924
      0.65833333	      1.18267783	      6.13768593	     14.84194462	      0.02085910	      1.00104329	      0.24324838	     23.10299247	    -10.57382813	    -14.51168246	    -14.24546718	     14.62914364	    -11.22872875	     -0.06368288	    -23.15695513	      3.26213042	     21.94694562	    -12.80976064	      0.00000000	      0.00000000	      0.00000000	      0.00000000	      0.00000000	      0.00000000	      8.27664227	    -14.18275120	     -3.71268186	    -14.51469991
      0.66250000	      1.31113944	      6.03875897	     14.69529242	      0.02749853	      1.00030921	      0.24371099	     23.38318772	    -10.46858546	    -14.51086824	    -15.50717867	     13.97056148	    -11.23087562	      0.02119172	    -23.28667349	      3.21099318	     21.58280166	    -13.45221086	      0.00000000	      0.00000000	      0.00000000	      0.00000000	      0.00000000	      0.00000000	      8.12239411	    -14.18709703	     -3.50958290	    -14.52562448
      0.66666667	      1.41227072	      5.91642081	     14.62832480	      0.03399963	      0.99970570	      0.24408502	     23.56956261	    -10.33571490	    -14.37725472	    -16.54604104	     13.50980586	    -11.18406713	      0.17941692	    -23.31619708	      3.13111835	     21.34160539	    -14.19953792	      0.00000000	      0.00000000	      0.00000000	      0.00000000	      0.00000000	      0.00000000	      7.87530542	    -14.18330664	     -3.27459972	    -14.47278249
      0.67083333	      1.51257379	      5.76421028	     14.70118450	      0.04041731	      0.99930947	      0.24429206	     23.57560314	    -10.16385083	    -14.16032546	    -17.29914840	     13.27095671	    -11.13332262	      0.23183604	    -23.27678931	      2.98495077	     21.28932960	    -15.03490993	      0.00000000	      0.00000000	      0.00000000	      0.00000000	      0.00000000	      0.00000000	      7.53984368	    -14.19268840	     -2.98774175	    -14.42705475
